<svg version="1.1" id="Layer_1" xmlns="http://www.w3.org/2000/svg" xmlns:xlink="http://www.w3.org/1999/xlink" x="0px" y="0px"
	 width="100%" viewBox="0 0 500 500" enable-background="new 0 0 500 500" xml:space="preserve">
<path fill="#340D6D" opacity="1.000000" stroke="none" 
	d="
M491.039001,501.000000 
	C327.366760,501.000000 164.201263,501.000000 1.017893,501.000000 
	C1.017893,334.346466 1.017893,167.692947 1.017893,1.019711 
	C167.652313,1.019711 334.304626,1.019711 500.978455,1.019711 
	C500.978455,167.651108 500.978455,334.302216 500.978455,501.000000 
	C497.848663,501.000000 494.697235,501.000000 491.039001,501.000000 
M299.499939,345.992188 
	C290.212189,345.992188 280.924469,345.992188 271.453430,345.992188 
	C271.453430,392.191803 271.453430,437.915039 271.453430,483.803589 
	C280.837311,483.803589 289.935364,483.803589 299.550232,483.803589 
	C299.550232,462.852020 299.550232,442.096466 299.550232,421.335144 
	C307.778687,421.564453 309.243103,422.901398 309.282349,430.281555 
	C309.349670,442.947144 309.303375,455.613312 309.304443,468.279236 
	C309.304871,473.397339 309.304504,478.515411 309.304504,483.715271 
	C318.766632,483.715271 327.669220,483.715271 336.911316,483.715271 
	C336.911316,465.958435 336.907349,448.491913 336.913055,431.025391 
	C336.915680,422.999023 335.462494,415.706818 326.555817,411.775574 
	C334.729797,408.162476 338.056702,401.589478 338.150177,394.014832 
	C338.280853,383.429077 338.103699,372.671417 336.346619,362.276642 
	C334.507935,351.398773 326.555573,346.094940 315.498871,346.002045 
	C310.499512,345.960052 305.499512,345.993164 299.499939,345.992188 
M372.021729,468.774536 
	C372.283051,466.540314 372.544403,464.306091 372.799011,462.129456 
	C378.273987,462.129456 383.217621,462.129456 388.503418,462.129456 
	C389.182495,469.388245 389.844086,476.460144 390.514343,483.624634 
	C399.501465,483.624634 408.190369,483.624634 417.093079,483.624634 
	C412.731873,437.548126 408.408478,391.871460 404.082733,346.169830 
	C388.058929,346.169830 372.600403,346.169830 356.793579,346.169830 
	C352.377869,392.111847 347.975861,437.910858 343.568695,483.763855 
	C353.023376,483.763855 361.797546,483.763855 370.876373,483.763855 
	C371.234100,478.931854 371.576019,474.313263 372.021729,468.774536 
M198.426254,369.703217 
	C196.574463,389.155640 194.722687,408.608093 192.870895,428.060516 
	C192.266617,428.036835 191.662354,428.013153 191.058075,427.989441 
	C188.138123,400.784088 185.218170,373.578735 182.289871,346.295654 
	C173.209030,346.295654 164.476547,346.295654 155.521286,346.295654 
	C161.178024,392.325500 166.794724,438.029419 172.399414,483.635803 
	C185.460083,483.635803 198.020599,483.635803 210.614975,483.635803 
	C216.260651,437.616119 221.862106,391.956818 227.468842,346.254608 
	C218.171432,346.254608 209.579773,346.254608 200.743530,346.254608 
	C199.979660,353.920166 199.238876,361.354095 198.426254,369.703217 
M453.279724,434.500641 
	C453.279724,405.082092 453.279724,375.663574 453.279724,346.337341 
	C443.596649,346.337341 434.522888,346.337341 425.527893,346.337341 
	C425.527893,392.388641 425.527893,438.095825 425.527893,483.718048 
	C444.303436,483.718048 462.719757,483.718048 481.189697,483.718048 
	C481.189697,475.694519 481.189697,467.962036 481.189697,459.849609 
	C471.747437,459.849609 462.638062,459.849609 453.279663,459.849609 
	C453.279663,451.475586 453.279663,443.488129 453.279724,434.500641 
M233.453094,428.499695 
	C233.453094,446.924103 233.453094,465.348541 233.453094,483.688934 
	C242.872086,483.688934 251.616089,483.688934 260.372406,483.688934 
	C260.372406,437.649445 260.372406,391.936737 260.372406,346.304321 
	C251.291077,346.304321 242.548813,346.304321 233.453369,346.304321 
	C233.453369,373.581512 233.453369,400.540588 233.453094,428.499695 
z"/>
<path fill="#FCFBFD" opacity="1.000000" stroke="none" 
	d="
M299.999878,345.992188 
	C305.499512,345.993164 310.499512,345.960052 315.498871,346.002045 
	C326.555573,346.094940 334.507935,351.398773 336.346619,362.276642 
	C338.103699,372.671417 338.280853,383.429077 338.150177,394.014832 
	C338.056702,401.589478 334.729797,408.162476 326.555817,411.775574 
	C335.462494,415.706818 336.915680,422.999023 336.913055,431.025391 
	C336.907349,448.491913 336.911316,465.958435 336.911316,483.715271 
	C327.669220,483.715271 318.766632,483.715271 309.304504,483.715271 
	C309.304504,478.515411 309.304871,473.397339 309.304443,468.279236 
	C309.303375,455.613312 309.349670,442.947144 309.282349,430.281555 
	C309.243103,422.901398 307.778687,421.564453 299.550232,421.335144 
	C299.550232,442.096466 299.550232,462.852020 299.550232,483.803589 
	C289.935364,483.803589 280.837311,483.803589 271.453430,483.803589 
	C271.453430,437.915039 271.453430,392.191803 271.453430,345.992188 
	C280.924469,345.992188 290.212189,345.992188 299.999878,345.992188 
M299.689819,394.335236 
	C300.004303,395.194458 300.092896,396.582764 300.669128,396.828796 
	C305.071442,398.708191 309.749176,396.418060 310.688171,391.658722 
	C311.324493,388.433441 311.313568,385.042664 311.276184,381.729492 
	C311.173645,372.642761 309.252380,371.118439 299.687195,372.556976 
	C299.687195,379.450012 299.687195,386.407867 299.689819,394.335236 
z"/>
<path fill="#FCFBFD" opacity="1.000000" stroke="none" 
	d="
M371.969849,469.234589 
	C371.576019,474.313263 371.234100,478.931854 370.876373,483.763855 
	C361.797546,483.763855 353.023376,483.763855 343.568695,483.763855 
	C347.975861,437.910858 352.377869,392.111847 356.793579,346.169830 
	C372.600403,346.169830 388.058929,346.169830 404.082733,346.169830 
	C408.408478,391.871460 412.731873,437.548126 417.093079,483.624634 
	C408.190369,483.624634 399.501465,483.624634 390.514343,483.624634 
	C389.844086,476.460144 389.182495,469.388245 388.503418,462.129456 
	C383.217621,462.129456 378.273987,462.129456 372.799011,462.129456 
	C372.544403,464.306091 372.283051,466.540314 371.969849,469.234589 
M375.738373,424.011902 
	C375.357910,429.243164 374.977448,434.474457 374.591766,439.777466 
	C378.803436,439.777466 382.385651,439.777466 386.416565,439.777466 
	C384.468445,416.928223 382.543518,394.350830 380.618561,371.773438 
	C380.290161,371.756348 379.961761,371.739227 379.633392,371.722137 
	C378.354767,388.842194 377.076172,405.962250 375.738373,424.011902 
z"/>
<path fill="#FCFBFD" opacity="1.000000" stroke="none" 
	d="
M198.462173,369.245605 
	C199.238876,361.354095 199.979660,353.920166 200.743530,346.254608 
	C209.579773,346.254608 218.171432,346.254608 227.468842,346.254608 
	C221.862106,391.956818 216.260651,437.616119 210.614975,483.635803 
	C198.020599,483.635803 185.460083,483.635803 172.399414,483.635803 
	C166.794724,438.029419 161.178024,392.325500 155.521286,346.295654 
	C164.476547,346.295654 173.209030,346.295654 182.289871,346.295654 
	C185.218170,373.578735 188.138123,400.784088 191.058075,427.989441 
	C191.662354,428.013153 192.266617,428.036835 192.870895,428.060516 
	C194.722687,408.608093 196.574463,389.155640 198.462173,369.245605 
z"/>
<path fill="#FDFCFD" opacity="1.000000" stroke="none" 
	d="
M453.279694,435.000671 
	C453.279663,443.488129 453.279663,451.475586 453.279663,459.849609 
	C462.638062,459.849609 471.747437,459.849609 481.189697,459.849609 
	C481.189697,467.962036 481.189697,475.694519 481.189697,483.718048 
	C462.719757,483.718048 444.303436,483.718048 425.527893,483.718048 
	C425.527893,438.095825 425.527893,392.388641 425.527893,346.337341 
	C434.522888,346.337341 443.596649,346.337341 453.279724,346.337341 
	C453.279724,375.663574 453.279724,405.082092 453.279694,435.000671 
z"/>
<path fill="#F8F7FA" opacity="1.000000" stroke="none" 
	d="
M233.453232,427.999695 
	C233.453369,400.540588 233.453369,373.581512 233.453369,346.304321 
	C242.548813,346.304321 251.291077,346.304321 260.372406,346.304321 
	C260.372406,391.936737 260.372406,437.649445 260.372406,483.688934 
	C251.616089,483.688934 242.872086,483.688934 233.453094,483.688934 
	C233.453094,465.348541 233.453094,446.924103 233.453232,427.999695 
z"/>
<path fill="#36106E" opacity="1.000000" stroke="none" 
	d="
M299.688507,393.850464 
	C299.687195,386.407867 299.687195,379.450012 299.687195,372.556976 
	C309.252380,371.118439 311.173645,372.642761 311.276184,381.729492 
	C311.313568,385.042664 311.324493,388.433441 310.688171,391.658722 
	C309.749176,396.418060 305.071442,398.708191 300.669128,396.828796 
	C300.092896,396.582764 300.004303,395.194458 299.688507,393.850464 
z"/>
<path fill="#3D1772" opacity="1.000000" stroke="none" 
	d="
M375.767975,423.547119 
	C377.076172,405.962250 378.354767,388.842194 379.633392,371.722137 
	C379.961761,371.739227 380.290161,371.756348 380.618561,371.773438 
	C382.543518,394.350830 384.468445,416.928223 386.416565,439.777466 
	C382.385651,439.777466 378.803436,439.777466 374.591766,439.777466 
	C374.977448,434.474457 375.357910,429.243164 375.767975,423.547119 
z"/>
</svg>